<svg width="1000" height="1000" viewBox="0 0 1000 1000" fill="none" xmlns="http://www.w3.org/2000/svg">
<path d="M705.976 941.717C462.022 1055.47 172.04 949.93 58.2831 705.976C-55.4743 462.022 50.0705 172.04 294.024 58.2831C537.978 -55.4743 827.96 50.0705 941.717 294.024C1055.47 537.978 949.93 827.96 705.976 941.717Z" fill="black" stroke="black" stroke-width="25"/>
<path d="M309.866 92.259C531.193 -10.9474 793.52 81.2658 902.223 298.1L653.979 413.858L543.28 176.462L60.9239 401.388C90.5437 270.148 178.468 153.531 309.866 92.259Z" fill="white"/>
<path d="M531.19 209.677L631.327 424.421L530.75 471.32L541.313 493.973L912.811 320.741C947.88 401.395 957.427 487.02 944.827 568.352L447.969 800.041L347.41 584.391L468.826 527.774L458.263 505.122L86.79 678.343C52.0464 597.957 42.6186 512.673 55.1715 431.648L531.19 209.677Z" fill="white"/>
<path d="M324.758 594.954L97.3282 701.006C205.758 918.481 468.501 1011.09 690.132 907.741C821.531 846.469 909.455 729.853 939.074 598.612L434.974 833.678L424.411 811.026L425.317 810.604L324.758 594.954Z" fill="white"/>
</svg>
